<?xml version="1.0" encoding="UTF-8"?>
<!DOCTYPE svg PUBLIC "-//W3C//DTD SVG 1.1//EN" "http://www.w3.org/Graphics/SVG/1.1/DTD/svg11.dtd">
<!-- Creator: CorelDRAW -->
<svg xmlns="http://www.w3.org/2000/svg" xml:space="preserve" width="400mm" height="400mm" version="1.1" style="shape-rendering:geometricPrecision; text-rendering:geometricPrecision; image-rendering:optimizeQuality; fill-rule:evenodd; clip-rule:evenodd"
viewBox="0 0 40000 40000"
 xmlns:xlink="http://www.w3.org/1999/xlink"
 xmlns:xodm="http://www.corel.com/coreldraw/odm/2003">
 <defs>
  <style type="text/css">
   <![CDATA[
    .fil2 {fill:#757475}
    .fil1 {fill:#A1A1A1}
    .fil0 {fill:#C9CACA}
    .fil3 {fill:#757475;fill-rule:nonzero}
   ]]>
  </style>
 </defs>
 <g id="Layer_x0020_1">
  <metadata id="CorelCorpID_0Corel-Layer"/>
  <path class="fil0" d="M25996.87 20429.92l1783.89 3943.35 -2888.2 0 -356.77 793.85 4782.5 0 -2169.33 -4805.22c1356.29,-232.4 2093.56,-1133 2211.81,-2701.8l0 -431.44c-59.85,-1169.53 -640.32,-1925.99 -1741.41,-2269.38 -606.5,-160.71 -1198.3,-238.37 -1775.39,-232.97l-1121.3 0 382.26 845.61 781.51 0c466.56,13.69 885.64,97.1 1257.21,250.25 618.82,273.49 967.11,753.82 1044.85,1441l0 379.67c-77.74,687.17 -460,1253.8 -1078.83,1527.29 -371.57,153.14 -892.57,245.17 -1359.14,258.86l-4230.35 0 -263.34 1000.93 4740.03 0zm-660.24 4136.39c18.25,18.04 27.33,43.41 27.33,76.02l0 253.76c0,21.49 -4.12,40.05 -12.32,55.5 -8.2,15.55 -20.19,27.31 -35.74,35.42 -15.66,8.1 -34.56,12.2 -56.69,12.2l-40.17 0 -26.24 0 -52.16 0 0 -460 52.16 0 26.24 0 40.5 0c33.15,0 58.84,9.07 77.09,27.1zm-402.37 354.4l78.4 0 0 78.5 -78.4 0 0 -78.5zm768.24 -381.5l0 76.56 -125.91 0 0 116.72 110.14 0 0 76.24 -110.14 0 0 113.92 125.91 0 0 76.56 -125.91 0 -43.62 0 -34.78 0 0 -460 34.78 0 43.62 0 125.91 0zm475.72 0l78.5 0 0 460 -78.5 0 0 -460zm-154.88 235.4c8.1,8.42 14.58,18.9 19.55,31.31 4.96,12.42 7.44,27.86 7.44,46.21l0 38.23c0,35.86 -9.93,63.82 -29.91,83.69 -19.87,19.98 -47.94,29.91 -84.01,29.91 -24.18,0 -44.91,-4.54 -62.09,-13.5 -17.17,-8.96 -30.34,-21.81 -39.51,-38.65 -9.18,-16.96 -13.83,-37.37 -13.83,-61.45l0 -24.62 78.18 -0.65 0 24.62c0,11.66 3.24,20.73 9.82,27.44 6.48,6.58 15.55,9.92 27.21,9.92 11.35,0 20.2,-3.23 26.36,-9.82 6.25,-6.48 9.39,-15.44 9.39,-26.89l0 -40.16c0,-9.5 -2.81,-17.5 -8.42,-23.87 -5.61,-6.48 -13.07,-12.2 -22.36,-17.39 -9.28,-5.18 -19.22,-10.36 -30.01,-15.65 -10.37,-5.29 -20.85,-11.23 -31.43,-17.71 -10.69,-6.59 -20.4,-14.47 -29.15,-23.65 -8.75,-9.17 -15.76,-20.4 -21.17,-33.69 -5.4,-13.28 -8.09,-29.26 -8.09,-48.04l0 -23.77c0,-35.41 9.93,-62.95 29.9,-82.49 19.98,-19.66 48.06,-29.48 84.34,-29.48 35.2,0 62.74,9.93 82.49,29.8 19.88,19.76 29.81,47.63 29.81,83.47l0 25.91 -78.18 0.97 0 -26.23c0,-11.77 -3.02,-21.06 -8.96,-27.65 -6.05,-6.69 -14.47,-10.04 -25.16,-10.04 -11.45,0 -20.19,3.02 -26.45,9.07 -6.27,6.05 -9.29,14.26 -9.29,24.84l0 30.67c0,10.79 3.13,19.55 9.61,26.45 6.48,6.81 14.8,12.85 24.94,18.03 10.26,5.08 21.06,10.81 32.5,16.85 9.94,5.08 19.77,10.58 29.59,16.52 9.72,5.83 18.68,13.06 26.89,21.49zm580.13 -187.13c8.97,17.16 13.4,37.89 13.4,62.2l0 35.41 -80.78 0 0 -35.41c0,-11.24 -2.69,-19.98 -8.31,-26.24 -5.61,-6.37 -13.28,-9.5 -23,-9.5 -10.69,0 -19.11,3.45 -25.05,10.58 -6.05,7.02 -9.07,16.63 -9.07,28.61l0 238.53c0,10.15 3.14,18.03 9.5,23.86 6.38,5.83 15.22,8.75 26.57,8.75 11.55,0 20.62,-3.13 27.21,-9.4 6.58,-6.15 9.83,-14.79 9.83,-25.8l0 -62.95 -38.66 0 0 -75.27 115.54 0 0 137.68c0,24.19 -4.53,44.92 -13.5,62.08 -8.96,17.17 -21.92,30.46 -38.88,39.64 -16.94,9.07 -37.46,13.71 -61.54,13.71 -24.08,0 -44.81,-4.43 -62.2,-13.28 -17.38,-8.86 -30.67,-21.7 -39.85,-38.45 -9.17,-16.73 -13.71,-36.92 -13.71,-60.57l0 -238.53c0,-24.94 4.54,-46.21 13.61,-63.93 9.07,-17.71 22.13,-31.21 39.2,-40.59 17.06,-9.4 37.46,-14.15 61,-14.15 23.65,0 43.84,4.54 60.47,13.61 16.63,9.07 29.37,22.24 38.22,39.41zm213.08 -48.27l99.67 282.99 0 -282.99 71.48 0 0 459.67 -62.3 0 -98.7 -267.28 0 267.28 -71.8 0 0 -459.67 61.65 0z"/>
  <path class="fil0" d="M25284.59 24887.23l0 -236.04c0,-11.56 -2.92,-20.63 -8.53,-27 -5.73,-6.48 -13.83,-9.61 -24.41,-9.71l-32.61 0 0 309.46 32.61 0c10.58,0 18.68,-3.34 24.41,-9.82 5.61,-6.58 8.53,-15.55 8.53,-26.89z"/>
  <polygon class="fil1" points="20103.31,23675.29 22242.23,15571.92 24797.4,15571.92 24416.86,14726.31 17714.57,14726.31 17935.42,15571.92 21214.37,15571.92 19585.25,21755.12 "/>
  <path class="fil2" d="M19922.95 24088.53l-2505.69 -9362.22 -1741.41 0 -4740.04 10432.19 1010.87 0 2149.16 -4728.58 3676.96 0 969.62 3658.61 1180.53 0zm-3278.71 -8516.61l1019.36 3857.08 -3109.05 0 1749.9 -3857.08 339.79 0z"/>
  <path class="fil3" d="M13438.11 24512.89l11.91 0 71.24 279.84 -152.93 0 69.78 -279.84zm-57.01 -59.6l-137.13 532.54 80.68 0 31.34 -142.56 175.14 0 31.78 142.56 88.08 0 -139 -532.54 -130.89 0zm62.98 68.78c-1.46,18.73 -3.5,36.71 -6.25,54.19 -2.62,17.46 -6.09,34.69 -10.45,51.9l-34.82 147.22 103.76 0 -35.71 -147.22c-0.29,-0.75 -0.57,-1.74 -0.86,-3.01 -8.87,-36.95 -14.09,-71.4 -15.67,-103.08zm-79.1 -86.12l163.54 0 148.74 567.24 -131.32 0 -32.23 -142.57 -140.15 0 -31.49 142.57 -124.51 0 147.42 -567.24zm1724.86 150.86c-14.81,0.76 -31.49,9.55 -50.06,26.53 -18.57,17.09 -40.2,43.37 -64.86,79.08l0 -98.06 -67.05 0 0 391.47 74.02 0 0 -232.32c0,-26.28 9.27,-47.52 27.85,-63.48 18.57,-15.97 43.25,-24.02 74.16,-24.02l5.94 0 0 -79.2zm20.9 -21.12l0 119.94c-4.51,-0.5 -9.01,-0.89 -13.21,-1.14 -4.21,-0.25 -9.29,-0.38 -15.24,-0.38 -24.66,0 -44.11,6.29 -58.32,18.85 -14.09,12.58 -21.19,29.42 -21.19,50.55l0 249.68 -115.8 0 0 -426.18 106.22 0 0.86 36.83c0,6.16 -0.57,12.7 -1.87,19.61 -1.31,7.04 -3.06,14.08 -5.22,21.12 21.18,-34.44 40.62,-57.7 58.32,-69.9 17.57,-12.19 39.33,-18.48 65.45,-18.98zm1248.89 -87.51l0 116.18 -46.15 0 0 38.45 45.29 0 0 273.19c0,37.08 5.66,60.23 16.82,69.66 11.17,9.3 31.92,13.95 62.55,13.95 5.08,0 14.52,-0.63 28.44,-1.89 4.5,-0.5 7.98,-0.87 10.59,-1l0 -42.37c-17.85,-3.01 -30.05,-8.55 -36.85,-16.84 -6.83,-8.18 -10.16,-21.63 -10.16,-40.36l0 -41.62 0 -212.72 46.15 0 0 -38.45 -46.15 0 0 -116.18 -70.53 0zm-21.75 -17.33l113.17 0 0 116.16 46.15 0 0 73.16 -46.15 0 0 236.22c0,16.23 2.47,27.03 7.4,32.44 4.94,5.4 14.07,8.16 27.28,8.16 1.17,0 3.18,-0.12 5.94,-0.37 2.92,-0.25 4.94,-0.37 6.4,-0.37l0 76.94c-11.91,1.26 -23.22,2.13 -33.82,2.76 -10.59,0.62 -19.88,1.01 -27.86,1.01 -37.29,0 -63.26,-6.41 -77.76,-19.37 -14.38,-12.82 -21.64,-40.1 -21.64,-81.59l0 -255.83 -44.4 0 0 -73.16 45.29 0 0 -116.16zm1409.25 17.33l0 116.18 -46.15 0 0 38.45 45.28 0 0 273.19c0,37.08 5.66,60.23 16.83,69.66 11.17,9.3 31.92,13.95 62.54,13.95 5.08,0 14.52,-0.63 28.44,-1.89 4.51,-0.5 7.98,-0.87 10.59,-1l0 -42.37c-17.85,-3.01 -30.04,-8.55 -36.85,-16.84 -6.83,-8.18 -10.16,-21.63 -10.16,-40.36l0 -41.62 0 -212.72 46.15 0 0 -38.45 -46.15 0 0 -116.18 -70.52 0zm-21.76 -17.33l113.17 0 0 116.16 46.16 0 0 73.16 -46.16 0 0 236.22c0,16.23 2.47,27.03 7.41,32.44 4.93,5.4 14.07,8.16 27.27,8.16 1.17,0 3.19,-0.12 5.94,-0.37 2.92,-0.25 4.94,-0.37 6.4,-0.37l0 76.94c-11.91,1.26 -23.22,2.13 -33.81,2.76 -10.59,0.62 -19.89,1.01 -27.87,1.01 -37.29,0 -63.26,-6.41 -77.76,-19.37 -14.37,-12.82 -21.63,-40.1 -21.63,-81.59l0 -255.83 -44.41 0 0 -73.16 45.29 0 0 -116.16zm1401.42 133.51l0 391.47 70.52 0 0 -391.47 -70.52 0zm0 -141.07l0 53.56 70.52 0 0 -53.56 -70.52 0zm-21.76 123.72l113.17 0 0 426.18 -113.17 0 0 -426.18zm0 -141.06l113.17 0 0 88.26 -113.17 0 0 -88.26zm1634.02 254.2c-1.17,-36.58 -12.05,-63.61 -32.81,-80.96 -20.75,-17.48 -52.23,-26.14 -94.89,-26.14 -45.41,0 -79.51,8.28 -102.44,24.89 -23.07,16.46 -34.53,41.23 -34.53,74.16 0,42.74 38.01,86.24 113.9,130.63 3.33,2.01 5.8,3.38 7.11,4.15 4.65,2.63 11.03,6.41 19.58,11.44 44.4,25.01 66.62,48.27 66.62,69.9 0,18.23 -6.69,32.8 -20.18,43.87 -13.49,11.06 -31.05,16.59 -52.96,16.59 -25.97,0 -45.41,-6.67 -58.03,-19.85 -12.63,-13.33 -18.86,-33.57 -18.86,-60.85l-60.67 0 0 4.4c0,39.71 10.88,68.76 32.8,87.24 21.76,18.35 56.29,27.53 103.75,27.53 45.56,0 80.38,-8.66 104.32,-25.89 23.96,-17.36 35.99,-42.5 35.99,-75.31 0,-41.49 -35.4,-82.48 -106.35,-122.96 -4.22,-2.39 -7.55,-4.4 -10.16,-5.9 -3.35,-1.89 -8.29,-4.77 -14.52,-8.43 -53.68,-30.93 -80.54,-58.58 -80.54,-82.98 0,-15.96 6.26,-29.02 18.88,-39.09 12.61,-10.05 28.88,-15.07 48.74,-15.07 24.09,0 42.66,5.77 55.88,17.46 13.21,11.69 20.45,28.79 21.91,51.17l57.46 0zm21.76 17.34l-100.12 0 0 -8.16c0,-20.87 -4.65,-36.21 -13.63,-45.88 -9.16,-9.7 -23.51,-14.6 -43.11,-14.6 -14.21,0 -25.54,3.41 -34.1,10.2 -8.56,6.66 -12.77,15.59 -12.77,26.63 0,18.5 24.25,41.63 72.84,69.41 7.98,4.65 14.24,8.18 18.86,10.69 0.29,0.25 0.6,0.37 0.89,0.62 79.36,45.76 118.97,92.16 118.97,139.55 0,37.83 -13.92,67 -41.93,87.62 -27.85,20.61 -67.62,30.93 -119.27,30.93 -54.27,0 -94.17,-11.06 -119.85,-33.19 -25.69,-21.99 -38.46,-56.45 -38.46,-103.33 0,-1.77 0.14,-4.41 0.43,-8.18 0.29,-3.64 0.43,-6.42 0.43,-8.43l102.46 0 0 7.43c0,27.4 4.2,46.38 12.46,56.82 8.42,10.43 23.08,15.72 43.83,15.72 15.53,0 28.01,-3.78 37.29,-11.19 9.15,-7.56 13.8,-17.73 13.8,-30.44 0,-16.71 -19.17,-35.69 -57.61,-57.07 -5.08,-3.01 -9.15,-5.27 -12.34,-7.04 -59.5,-33.82 -97.21,-60.85 -113.17,-80.96 -16.13,-20.24 -24.11,-44.37 -24.11,-72.54 0,-37.83 13.49,-66.75 40.64,-86.62 26.98,-19.86 66.31,-29.79 117.97,-29.79 49.91,0 87.2,11.07 112.17,33.2 24.94,21.98 37.43,55.3 37.43,99.69l0 8.91zm1478.91 41.62l0 95.8c0,31.43 -7.84,56.07 -23.37,74.05 -15.67,17.98 -36.56,26.9 -62.97,26.9 -20.75,0 -36.85,-5.91 -48.17,-17.73 -11.33,-11.81 -16.98,-28.42 -16.98,-50.03 0,-22.38 8.72,-41.87 25.97,-58.46 17.28,-16.59 59.21,-40.11 125.52,-70.53zm67.04 -47.64c0,-45.39 -10.45,-76.57 -31.2,-93.67 -20.89,-16.97 -57.17,-25.52 -108.98,-25.52 -49.48,0 -85.76,8.05 -108.67,24.14 -22.93,15.97 -36.56,42.63 -40.78,79.95l67.33 0c1.44,-21.36 8.99,-38.09 22.93,-50.03 13.93,-11.94 32.79,-17.85 56.58,-17.85 23.51,0 41.79,5.15 54.71,15.46 12.91,10.32 19.31,25.02 19.31,43.87 0,28.3 -29.04,53.44 -87.22,75.32l-5.08 1.75c-53.39,20.11 -89.09,39.73 -106.66,58.71 -17.68,19.12 -26.55,44.76 -26.55,77.19 0,33.57 8.58,59.85 25.69,78.83 17.13,18.87 41.07,28.29 71.98,28.29 22.05,0 43.09,-4.65 62.83,-13.95 19.87,-9.32 38.15,-23.02 55.28,-41.12 2.18,7.67 4.65,14.96 7.12,22.13 2.61,7.03 5.65,13.95 8.98,20.86l69.21 0c-2.3,-6.4 -3.91,-13.33 -5.06,-20.74 -1.17,-7.41 -1.75,-15.34 -1.75,-23.63l0 -239.99zm-88.8 76.3c-44.26,20.88 -73.42,38.34 -87.65,52.31 -14.07,14.08 -21.19,30.29 -21.19,48.64 0,15.97 3.93,28.3 11.91,36.84 7.98,8.67 19.29,12.95 33.95,12.95 20.76,0 36.43,-6.91 47.02,-20.62 10.59,-13.82 15.96,-34.32 15.96,-61.59l0 -7.29 0 -61.24zm109.7 -76.3l0 240.74c0,11.19 1.29,21.63 3.76,31.18 2.61,9.55 6.83,19.48 12.77,29.8l-110.42 0c-3.47,-4.9 -6.08,-10.45 -7.98,-16.72 -1.74,-6.29 -3.04,-13.2 -3.62,-20.88 -13.51,15.72 -30.04,27.8 -49.48,36.21 -19.31,8.42 -40.49,12.7 -63.42,12.7 -37.43,0 -66.45,-10.94 -87.35,-32.8 -20.75,-21.76 -31.2,-52.19 -31.2,-90.91 0,-34.57 8.85,-62.22 26.7,-82.96 17.85,-20.75 54.13,-41.88 108.69,-63.24 5.94,-2.39 14.35,-5.67 25.09,-9.55 43.39,-16.24 65.01,-34.84 65.01,-55.7 0,-14.45 -4.2,-25.39 -12.48,-32.56 -8.42,-7.3 -21.04,-10.94 -38.15,-10.94 -20.61,0 -35.85,4.78 -45.58,14.33 -9.85,9.67 -14.64,24.64 -14.64,45.01l0 8.55 -110.42 0 0 -8.55c0,-43.62 14.07,-75.93 41.93,-97.06 27.85,-21.11 70.81,-31.68 128.85,-31.68 59.5,0 101.43,10.07 125.66,30.04 24.23,19.99 36.28,54.95 36.28,104.99zm1550.13 -19.37c0,-34.07 -7.41,-59.21 -22.34,-75.18 -14.95,-15.96 -38.17,-23.87 -69.94,-23.87 -21.04,0 -41.22,5.77 -60.36,17.21 -19.17,11.56 -39.33,30.17 -60.65,55.95l0 -61.85 -68.8 0 0 391.47 71.41 0 0 -241.12c0,-35.08 5.94,-60.35 17.97,-75.82 12.06,-15.44 31.65,-23.25 58.49,-23.25 23.22,0 40.05,6.79 50.64,20.24 10.45,13.58 15.67,35.46 15.67,66l0 253.95 67.91 0 0 -303.73zm20.89 -13.58l0 334.67 -109.7 0 0 -271.31c0,-25.51 -3.62,-43.24 -11.02,-53.17 -7.4,-9.94 -19.74,-14.96 -36.85,-14.96 -19.3,0 -32.95,6.04 -41.07,17.97 -7.98,12.07 -12.04,33.32 -12.04,63.74l0 257.73 -114.06 0 0 -426.18 109.85 0 0 21.73c0,4.16 -0.58,8.56 -1.75,13.08 -1.15,4.65 -3.04,9.55 -5.51,14.97 16.7,-20.87 34.24,-36.21 52.67,-46.15 18.43,-9.92 38.89,-14.95 61.53,-14.95 34.24,0 60.8,8.93 79.65,26.78 18.88,17.73 28.3,43.12 28.3,76.05z"/>
  <polygon class="fil2" points="24934.26,24920.71 24934.26,24999.21 25012.66,24999.21 25012.66,24920.71 "/>
  <path class="fil2" d="M25140.64 24539.21l0 460 52.16 0 26.24 0 40.17 0c22.13,0 41.03,-4.1 56.69,-12.2 15.55,-8.11 27.54,-19.87 35.74,-35.42 8.2,-15.45 12.32,-34.01 12.32,-55.5l0 -253.76c0,-32.61 -9.08,-57.98 -27.33,-76.02 -18.25,-18.03 -43.94,-27.1 -77.09,-27.1l-40.5 0 -26.24 0 -52.16 0zm78.4 384.73l0 -309.46 32.61 0c10.58,0.1 18.68,3.23 24.41,9.71 5.61,6.37 8.53,15.44 8.53,27l0 236.04c0,11.34 -2.92,20.31 -8.53,26.89 -5.73,6.48 -13.83,9.82 -24.41,9.82l-32.61 0z"/>
  <polygon class="fil2" points="25498.19,24539.21 25498.19,24999.21 25532.97,24999.21 25576.59,24999.21 25702.5,24999.21 25702.5,24922.65 25576.59,24922.65 25576.59,24808.73 25686.73,24808.73 25686.73,24732.49 25576.59,24732.49 25576.59,24615.77 25702.5,24615.77 25702.5,24539.21 25576.59,24539.21 25532.97,24539.21 "/>
  <path class="fil2" d="M25851.21 24563.94c-19.97,19.54 -29.9,47.08 -29.9,82.49l0 23.77c0,18.78 2.69,34.76 8.09,48.04 5.41,13.29 12.42,24.52 21.17,33.69 8.75,9.18 18.46,17.06 29.15,23.65 10.58,6.48 21.06,12.42 31.43,17.71 10.79,5.29 20.73,10.47 30.01,15.65 9.29,5.19 16.75,10.91 22.36,17.39 5.61,6.37 8.42,14.37 8.42,23.87l0 40.16c0,11.45 -3.14,20.41 -9.39,26.89 -6.16,6.59 -15.01,9.82 -26.36,9.82 -11.66,0 -20.73,-3.34 -27.21,-9.92 -6.58,-6.71 -9.82,-15.78 -9.82,-27.44l0 -24.62 -78.18 0.65 0 24.62c0,24.08 4.65,44.49 13.83,61.45 9.17,16.84 22.34,29.69 39.51,38.65 17.18,8.96 37.91,13.5 62.09,13.5 36.07,0 64.14,-9.93 84.01,-29.91 19.98,-19.87 29.91,-47.83 29.91,-83.69l0 -38.23c0,-18.35 -2.48,-33.79 -7.44,-46.21 -4.97,-12.41 -11.45,-22.89 -19.55,-31.31 -8.21,-8.43 -17.17,-15.66 -26.89,-21.49 -9.82,-5.94 -19.65,-11.44 -29.59,-16.52 -11.44,-6.04 -22.24,-11.77 -32.5,-16.85 -10.14,-5.18 -18.46,-11.22 -24.94,-18.03 -6.48,-6.9 -9.61,-15.66 -9.61,-26.45l0 -30.67c0,-10.58 3.02,-18.79 9.29,-24.84 6.26,-6.05 15,-9.07 26.45,-9.07 10.69,0 19.11,3.35 25.16,10.04 5.94,6.59 8.96,15.88 8.96,27.65l0 26.23 78.18 -0.97 0 -25.91c0,-35.84 -9.93,-63.71 -29.81,-83.47 -19.75,-19.87 -47.29,-29.8 -82.49,-29.8 -36.28,0 -64.36,9.82 -84.34,29.48z"/>
  <polygon class="fil2" points="26178.22,24539.21 26178.22,24999.21 26256.72,24999.21 26256.72,24539.21 "/>
  <path class="fil2" d="M26404.58 24589.2c-9.07,17.72 -13.61,38.99 -13.61,63.93l0 238.53c0,23.65 4.54,43.84 13.71,60.57 9.18,16.75 22.47,29.59 39.85,38.45 17.39,8.85 38.12,13.28 62.2,13.28 24.08,0 44.6,-4.64 61.54,-13.71 16.96,-9.18 29.92,-22.47 38.88,-39.64 8.97,-17.16 13.5,-37.89 13.5,-62.08l0 -137.68 -115.54 0 0 75.27 38.66 0 0 62.95c0,11.01 -3.25,19.65 -9.83,25.8 -6.59,6.27 -15.66,9.4 -27.21,9.4 -11.35,0 -20.19,-2.92 -26.57,-8.75 -6.36,-5.83 -9.5,-13.71 -9.5,-23.86l0 -238.53c0,-11.98 3.02,-21.59 9.07,-28.61 5.94,-7.13 14.36,-10.58 25.05,-10.58 9.72,0 17.39,3.13 23,9.5 5.62,6.26 8.31,15 8.31,26.24l0 35.41 80.78 0 0 -35.41c0,-24.31 -4.43,-45.04 -13.4,-62.2 -8.85,-17.17 -21.59,-30.34 -38.22,-39.41 -16.63,-9.07 -36.82,-13.61 -60.47,-13.61 -23.54,0 -43.94,4.75 -61,14.15 -17.07,9.38 -30.13,22.88 -39.2,40.59z"/>
  <polygon class="fil2" points="26754.9,24539.21 26754.9,24998.88 26826.7,24998.88 26826.7,24731.6 26925.4,24998.88 26987.7,24998.88 26987.7,24539.21 26916.22,24539.21 26916.22,24822.2 26816.55,24539.21 "/>
 </g>
</svg>
