<?xml version="1.0" encoding="UTF-8"?>
<!DOCTYPE svg PUBLIC "-//W3C//DTD SVG 1.1//EN" "http://www.w3.org/Graphics/SVG/1.1/DTD/svg11.dtd">
<!-- Creator: CorelDRAW -->
<svg xmlns="http://www.w3.org/2000/svg" xml:space="preserve" width="400mm" height="400mm" version="1.1" style="shape-rendering:geometricPrecision; text-rendering:geometricPrecision; image-rendering:optimizeQuality; fill-rule:evenodd; clip-rule:evenodd"
viewBox="0 0 40000 40000"
 xmlns:xlink="http://www.w3.org/1999/xlink"
 xmlns:xodm="http://www.corel.com/coreldraw/odm/2003">
 <defs>
  <style type="text/css">
   <![CDATA[
    .fil3 {fill:#757475}
    .fil2 {fill:#A1A1A1}
    .fil1 {fill:#C9CACA}
    .fil0 {fill:white}
    .fil4 {fill:#757475;fill-rule:nonzero}
   ]]>
  </style>
 </defs>
 <g id="Layer_x0020_1">
  <metadata id="CorelCorpID_0Corel-Layer"/>
  <rect class="fil0" x="-6.73" y="6.73" width="40000" height="40000"/>
  <path class="fil1" d="M24851.85 20335.29l1434.65 3171.34 -2322.76 0 -286.92 638.43 3846.2 0 -1744.63 -3864.47c1090.76,-186.9 1683.69,-911.19 1778.79,-2172.85l0 -346.97c-48.14,-940.57 -514.96,-1548.93 -1400.49,-1825.09 -487.76,-129.25 -963.7,-191.7 -1427.8,-187.36l-901.78 0 307.43 680.06 628.5 0c375.22,11 712.25,78.09 1011.08,201.25 497.67,219.95 777.77,606.24 840.3,1158.89l0 305.34c-62.53,552.64 -369.95,1008.33 -867.63,1228.28 -298.82,123.16 -717.82,197.18 -1093.05,208.18l-3402.15 0 -211.78 804.97 3812.04 0zm-530.98 3326.58c14.68,14.51 21.98,34.92 21.98,61.14l0 204.08c0,17.28 -3.31,32.21 -9.9,44.64 -6.6,12.5 -16.24,21.96 -28.75,28.48 -12.59,6.51 -27.79,9.81 -45.59,9.81l-32.3 0 -21.11 0 -41.94 0 0 -369.94 41.94 0 21.11 0 32.56 0c26.66,0 47.33,7.29 62,21.79zm-323.59 285.02l63.05 0 0 63.13 -63.05 0 0 -63.13zm617.83 -306.81l0 61.57 -101.25 0 0 93.87 88.58 0 0 61.31 -88.58 0 0 91.62 101.25 0 0 61.57 -101.25 0 -35.09 0 -27.96 0 0 -369.94 27.96 0 35.09 0 101.25 0zm382.59 0l63.13 0 0 369.94 -63.13 0 0 -369.94zm-124.56 189.32c6.51,6.76 11.73,15.19 15.72,25.18 3.99,9.98 5.99,22.4 5.99,37.16l0 30.75c0,28.83 -7.99,51.32 -24.06,67.3 -15.97,16.06 -38.55,24.05 -67.56,24.05 -19.45,0 -36.12,-3.65 -49.93,-10.85 -13.81,-7.21 -24.4,-17.54 -31.78,-31.09 -7.38,-13.64 -11.12,-30.05 -11.12,-49.41l0 -19.8 62.87 -0.53 0 19.8c0,9.38 2.61,16.67 7.9,22.06 5.21,5.3 12.51,7.99 21.89,7.99 9.12,0 16.24,-2.6 21.19,-7.9 5.03,-5.21 7.55,-12.42 7.55,-21.62l0 -32.31c0,-7.64 -2.26,-14.07 -6.77,-19.19 -4.51,-5.21 -10.51,-9.82 -17.98,-13.98 -7.46,-4.17 -15.46,-8.34 -24.14,-12.59 -8.33,-4.26 -16.76,-9.03 -25.27,-14.25 -8.6,-5.3 -16.41,-11.63 -23.44,-19.02 -7.04,-7.37 -12.68,-16.41 -17.03,-27.09 -4.34,-10.68 -6.51,-23.53 -6.51,-38.64l0 -19.11c0,-28.48 7.99,-50.63 24.05,-66.34 16.07,-15.81 38.65,-23.71 67.83,-23.71 28.31,0 50.46,7.99 66.34,23.96 15.99,15.9 23.97,38.31 23.97,67.13l0 20.84 -62.87 0.78 0 -21.09c0,-9.47 -2.43,-16.94 -7.21,-22.24 -4.86,-5.38 -11.63,-8.07 -20.23,-8.07 -9.21,0 -16.24,2.43 -21.28,7.29 -5.03,4.87 -7.46,11.46 -7.46,19.97l0 24.67c0,8.68 2.52,15.72 7.73,21.28 5.21,5.47 11.89,10.33 20.05,14.49 8.25,4.09 16.94,8.69 26.14,13.55 7.99,4.09 15.9,8.51 23.8,13.29 7.81,4.69 15.02,10.51 21.62,17.29zm466.56 -150.5c7.21,13.8 10.77,30.47 10.77,50.02l0 28.48 -64.96 0 0 -28.48c0,-9.03 -2.17,-16.07 -6.69,-21.1 -4.51,-5.12 -10.67,-7.64 -18.49,-7.64 -8.6,0 -15.37,2.77 -20.15,8.51 -4.86,5.64 -7.29,13.37 -7.29,23l0 191.84c0,8.16 2.52,14.5 7.64,19.19 5.13,4.69 12.24,7.03 21.37,7.03 9.28,0 16.58,-2.52 21.88,-7.55 5.29,-4.95 7.9,-11.9 7.9,-20.76l0 -50.62 -31.09 0 0 -60.54 92.92 0 0 110.73c0,19.45 -3.64,36.13 -10.86,49.93 -7.2,13.81 -17.62,24.49 -31.26,31.88 -13.63,7.29 -30.13,11.02 -49.49,11.02 -19.37,0 -36.04,-3.56 -50.02,-10.68 -13.99,-7.12 -24.67,-17.45 -32.06,-30.92 -7.37,-13.45 -11.02,-29.69 -11.02,-48.71l0 -191.84c0,-20.05 3.65,-37.16 10.94,-51.4 7.3,-14.25 17.8,-25.1 31.53,-32.65 13.72,-7.56 30.13,-11.38 49.06,-11.38 19.02,0 35.26,3.65 48.63,10.94 13.38,7.3 23.62,17.89 30.74,31.7zm171.36 -38.82l80.16 227.59 0 -227.59 57.49 0 0 369.68 -50.11 0 -79.38 -214.96 0 214.96 -57.74 0 0 -369.68 49.58 0z"/>
  <path class="fil1" d="M24279.02 23919.97l0 -189.84c0,-9.29 -2.35,-16.59 -6.86,-21.71 -4.6,-5.21 -11.12,-7.73 -19.63,-7.81l-26.22 0 0 248.88 26.22 0c8.51,0 15.03,-2.69 19.63,-7.9 4.51,-5.29 6.86,-12.51 6.86,-21.62z"/>
  <polygon class="fil2" points="20112.12,22945.3 21832.28,16428.38 23887.21,16428.38 23581.17,15748.32 18191.04,15748.32 18368.65,16428.38 21005.65,16428.38 19695.48,21401.05 "/>
  <path class="fil3" d="M19967.06 23277.63l-2015.13 -7529.31 -1400.48 0 -3812.05 8389.8 812.97 0 1728.4 -3802.83 2957.1 0 779.79 2942.34 949.4 0zm-2636.81 -6849.25l819.79 3101.95 -2500.36 0 1407.3 -3101.95 273.27 0z"/>
  <path class="fil4" d="M14751.81 23618.92l9.58 0 57.29 225.05 -122.99 0 56.12 -225.05zm-45.85 -47.94l-110.28 428.28 64.88 0 25.21 -114.65 140.85 0 25.55 114.65 70.84 0 -111.79 -428.28 -105.26 0zm50.65 55.32c-1.18,15.06 -2.81,29.52 -5.03,43.57 -2.1,14.05 -4.9,27.9 -8.4,41.75l-28.01 118.39 83.45 0 -28.72 -118.39c-0.23,-0.61 -0.46,-1.41 -0.69,-2.42 -7.13,-29.73 -11.33,-57.43 -12.6,-82.9zm-63.61 -69.26l131.52 0 119.61 456.18 -105.6 0 -25.92 -114.65 -112.72 0 -25.32 114.65 -100.13 0 118.56 -456.18zm1387.17 121.32c-11.91,0.61 -25.32,7.68 -40.26,21.33 -14.94,13.75 -32.34,34.88 -52.17,63.6l0 -78.86 -53.92 0 0 314.83 59.53 0 0 -186.83c0,-21.14 7.46,-38.22 22.4,-51.06 14.93,-12.84 34.78,-19.32 59.64,-19.32l4.78 0 0 -63.69zm16.8 -16.98l0 96.45c-3.62,-0.4 -7.24,-0.72 -10.62,-0.92 -3.39,-0.2 -7.47,-0.3 -12.25,-0.3 -19.83,0 -35.48,5.06 -46.91,15.16 -11.33,10.12 -17.03,23.66 -17.03,40.66l0 200.79 -93.14 0 0 -342.74 85.43 0 0.69 29.62c0,4.95 -0.46,10.21 -1.5,15.77 -1.06,5.66 -2.47,11.32 -4.2,16.98 17.03,-27.7 32.66,-46.4 46.9,-56.21 14.13,-9.8 31.63,-14.86 52.63,-15.26zm1004.4 -70.38l0 93.43 -37.12 0 0 30.93 36.42 0 0 219.7c0,29.82 4.55,48.44 13.53,56.02 8.98,7.48 25.67,11.22 50.3,11.22 4.08,0 11.67,-0.5 22.87,-1.52 3.62,-0.4 6.42,-0.7 8.52,-0.8l0 -34.08c-14.36,-2.42 -24.16,-6.88 -29.64,-13.54 -5.49,-6.58 -8.17,-17.4 -8.17,-32.46l0 -33.47 0 -171.07 37.12 0 0 -30.93 -37.12 0 0 -93.43 -56.71 0zm-17.5 -13.94l91.01 0 0 93.42 37.12 0 0 58.83 -37.12 0 0 189.98c0,13.05 1.99,21.74 5.96,26.09 3.97,4.34 11.31,6.56 21.93,6.56 0.94,0 2.56,-0.1 4.78,-0.3 2.35,-0.2 3.97,-0.3 5.14,-0.3l0 61.88c-9.57,1.02 -18.67,1.72 -27.19,2.22 -8.51,0.5 -15.99,0.82 -22.41,0.82 -29.98,0 -50.87,-5.16 -62.53,-15.58 -11.57,-10.32 -17.4,-32.26 -17.4,-65.62l0 -205.75 -35.71 0 0 -58.83 36.42 0 0 -93.42zm1133.35 13.94l0 93.43 -37.11 0 0 30.93 36.42 0 0 219.7c0,29.82 4.54,48.44 13.53,56.02 8.98,7.48 25.66,11.22 50.29,11.22 4.09,0 11.68,-0.5 22.88,-1.52 3.62,-0.4 6.41,-0.7 8.51,-0.8l0 -34.08c-14.35,-2.42 -24.16,-6.88 -29.63,-13.54 -5.5,-6.58 -8.17,-17.4 -8.17,-32.46l0 -33.47 0 -171.07 37.11 0 0 -30.93 -37.11 0 0 -93.43 -56.72 0zm-17.5 -13.94l91.02 0 0 93.42 37.11 0 0 58.83 -37.11 0 0 189.98c0,13.05 1.98,21.74 5.95,26.09 3.97,4.34 11.32,6.56 21.94,6.56 0.94,0 2.56,-0.1 4.78,-0.3 2.34,-0.2 3.97,-0.3 5.14,-0.3l0 61.88c-9.58,1.02 -18.67,1.72 -27.19,2.22 -8.52,0.5 -16,0.82 -22.41,0.82 -29.99,0 -50.88,-5.16 -62.54,-15.58 -11.56,-10.32 -17.4,-32.26 -17.4,-65.62l0 -205.75 -35.71 0 0 -58.83 36.42 0 0 -93.42zm1127.05 107.37l0 314.83 56.72 0 0 -314.83 -56.72 0zm0 -113.45l0 43.08 56.72 0 0 -43.08 -56.72 0zm-17.5 99.5l91.02 0 0 342.74 -91.02 0 0 -342.74zm0 -113.44l91.02 0 0 70.98 -91.02 0 0 -70.98zm1314.12 204.43c-0.94,-29.42 -9.69,-51.16 -26.38,-65.11 -16.69,-14.06 -42.01,-21.03 -76.31,-21.03 -36.52,0 -63.95,6.67 -82.39,20.02 -18.56,13.24 -27.77,33.16 -27.77,59.64 0,34.38 30.57,69.36 91.6,105.06 2.68,1.62 4.66,2.72 5.72,3.34 3.74,2.12 8.87,5.15 15.75,9.2 35.71,20.11 53.57,38.82 53.57,56.21 0,14.66 -5.38,26.38 -16.23,35.28 -10.85,8.9 -24.97,13.34 -42.59,13.34 -20.89,0 -36.52,-5.36 -46.67,-15.96 -10.16,-10.72 -15.17,-27 -15.17,-48.94l-48.79 0 0 3.54c0,31.94 8.75,55.3 26.38,70.16 17.5,14.76 45.27,22.14 83.44,22.14 36.64,0 64.64,-6.96 83.89,-20.82 19.27,-13.96 28.95,-34.18 28.95,-60.56 0,-33.37 -28.47,-66.33 -85.53,-98.89 -3.39,-1.92 -6.07,-3.54 -8.17,-4.74 -2.7,-1.52 -6.67,-3.84 -11.68,-6.78 -43.17,-24.88 -64.77,-47.12 -64.77,-66.74 0,-12.83 5.03,-23.34 15.19,-31.44 10.14,-8.08 23.22,-12.12 39.2,-12.12 19.36,0 34.3,4.64 44.93,14.05 10.62,9.4 16.44,23.15 17.62,41.15l46.21 0zm17.5 13.94l-80.52 0 0 -6.56c0,-16.78 -3.73,-29.12 -10.96,-36.9 -7.36,-7.79 -18.91,-11.74 -34.67,-11.74 -11.43,0 -20.54,2.74 -27.42,8.2 -6.88,5.36 -10.27,12.54 -10.27,21.42 0,14.88 19.5,33.48 58.58,55.82 6.42,3.74 11.45,6.58 15.17,8.6 0.23,0.2 0.48,0.3 0.71,0.5 63.83,36.8 95.68,74.11 95.68,112.23 0,30.42 -11.2,53.88 -33.72,70.46 -22.4,16.58 -54.39,24.88 -95.92,24.88 -43.65,0 -75.73,-8.9 -96.39,-26.7 -20.66,-17.68 -30.93,-45.39 -30.93,-83.1 0,-1.42 0.12,-3.54 0.35,-6.57 0.23,-2.93 0.34,-5.16 0.34,-6.78l82.41 0 0 5.97c0,22.04 3.37,37.3 10.02,45.7 6.76,8.38 18.56,12.64 35.25,12.64 12.48,0 22.52,-3.04 29.98,-9 7.36,-6.07 11.1,-14.26 11.1,-24.47 0,-13.45 -15.42,-28.71 -46.33,-45.9 -4.08,-2.43 -7.36,-4.24 -9.92,-5.66 -47.85,-27.2 -78.19,-48.94 -91.02,-65.12 -12.97,-16.28 -19.38,-35.68 -19.38,-58.34 0,-30.42 10.85,-53.68 32.68,-69.65 21.7,-15.98 53.32,-23.96 94.87,-23.96 40.14,0 70.13,8.89 90.21,26.69 20.06,17.69 30.1,44.48 30.1,80.18l0 7.16zm1189.37 33.48l0 77.04c0,25.27 -6.3,45.09 -18.79,59.55 -12.6,14.46 -29.4,21.64 -50.64,21.64 -16.69,0 -29.64,-4.76 -38.74,-14.26 -9.11,-9.5 -13.66,-22.85 -13.66,-40.24 0,-18 7.01,-33.67 20.89,-47.01 13.9,-13.34 47.62,-32.26 100.94,-56.72zm53.92 -38.32c0,-36.5 -8.4,-61.58 -25.09,-75.33 -16.8,-13.64 -45.98,-20.52 -87.64,-20.52 -39.8,0 -68.97,6.47 -87.4,19.41 -18.44,12.84 -29.41,34.28 -32.8,64.3l54.16 0c1.15,-17.18 7.22,-30.63 18.44,-40.24 11.19,-9.6 26.36,-14.35 45.5,-14.35 18.9,0 33.61,4.14 43.99,12.43 10.39,8.3 15.53,20.12 15.53,35.28 0,22.76 -23.35,42.98 -70.14,60.58l-4.09 1.4c-42.93,16.18 -71.65,31.96 -85.77,47.22 -14.23,15.37 -21.35,36 -21.35,62.08 0,26.99 6.89,48.13 20.65,63.39 13.78,15.18 33.03,22.76 57.89,22.76 17.73,0 34.65,-3.74 50.53,-11.22 15.98,-7.5 30.68,-18.52 44.46,-33.08 1.75,6.18 3.74,12.04 5.72,17.8 2.1,5.66 4.55,11.22 7.23,16.78l55.66 0c-1.85,-5.14 -3.14,-10.72 -4.07,-16.68 -0.94,-5.96 -1.41,-12.34 -1.41,-19l0 -193.01zm-71.42 61.36c-35.59,16.8 -59.04,30.84 -70.49,42.07 -11.31,11.32 -17.03,24.37 -17.03,39.12 0,12.84 3.16,22.76 9.57,29.63 6.42,6.97 15.52,10.41 27.31,10.41 16.69,0 29.29,-5.56 37.81,-16.58 8.52,-11.12 12.83,-27.6 12.83,-49.54l0 -5.86 0 -49.25zm88.23 -61.36l0 193.61c0,9 1.04,17.4 3.02,25.08 2.11,7.68 5.5,15.66 10.28,23.96l-88.81 0c-2.79,-3.94 -4.89,-8.4 -6.41,-13.44 -1.41,-5.06 -2.45,-10.62 -2.91,-16.8 -10.87,12.64 -24.17,22.36 -39.8,29.12 -15.53,6.78 -32.57,10.22 -51.01,10.22 -30.1,0 -53.44,-8.8 -70.24,-26.38 -16.69,-17.5 -25.09,-41.97 -25.09,-73.11 0,-27.8 7.11,-50.04 21.47,-66.72 14.35,-16.68 43.53,-33.68 87.41,-50.86 4.78,-1.92 11.54,-4.56 20.18,-7.68 34.9,-13.06 52.28,-28.02 52.28,-44.8 0,-11.62 -3.38,-20.42 -10.04,-26.18 -6.77,-5.87 -16.92,-8.8 -30.68,-8.8 -16.57,0 -28.83,3.84 -36.65,11.52 -7.93,7.79 -11.78,19.82 -11.78,36.2l0 6.88 -88.8 0 0 -6.88c0,-35.08 11.31,-61.06 33.72,-78.05 22.4,-16.98 56.95,-25.48 103.62,-25.48 47.85,0 81.58,8.09 101.06,24.16 19.49,16.08 29.18,44.19 29.18,84.43zm1246.65 -15.58c0,-27.4 -5.96,-47.61 -17.96,-60.45 -12.03,-12.84 -30.7,-19.21 -56.25,-19.21 -16.93,0 -33.15,4.65 -48.55,13.85 -15.41,9.3 -31.62,24.26 -48.77,44.99l0 -49.74 -55.33 0 0 314.83 57.43 0 0 -193.91c0,-28.22 4.78,-48.54 14.45,-60.97 9.69,-12.43 25.46,-18.71 47.04,-18.71 18.67,0 32.2,5.46 40.72,16.28 8.4,10.92 12.6,28.52 12.6,53.08l0 204.23 54.62 0 0 -244.27zm16.8 -10.92l0 269.15 -88.22 0 0 -218.19c0,-20.52 -2.91,-34.78 -8.86,-42.76 -5.96,-8 -15.88,-12.04 -29.64,-12.04 -15.52,0 -26.5,4.86 -33.03,14.46 -6.42,9.7 -9.68,26.8 -9.68,51.26l0 207.27 -91.73 0 0 -342.74 88.34 0 0 17.48c0,3.34 -0.46,6.88 -1.41,10.52 -0.92,3.74 -2.44,7.68 -4.43,12.03 13.43,-16.78 27.54,-29.12 42.36,-37.11 14.82,-7.98 31.28,-12.02 49.49,-12.02 27.53,0 48.89,7.18 64.05,21.53 15.19,14.26 22.76,34.68 22.76,61.16z"/>
  <polygon class="fil3" points="23997.28,23946.89 23997.28,24010.02 24060.33,24010.02 24060.33,23946.89 "/>
  <path class="fil3" d="M24163.26 23640.08l0 369.94 41.94 0 21.11 0 32.3 0c17.8,0 33,-3.3 45.59,-9.81 12.51,-6.52 22.15,-15.98 28.75,-28.48 6.59,-12.43 9.9,-27.36 9.9,-44.64l0 -204.08c0,-26.22 -7.3,-46.63 -21.98,-61.14 -14.67,-14.5 -35.34,-21.79 -62,-21.79l-32.56 0 -21.11 0 -41.94 0zm63.05 309.41l0 -248.88 26.22 0c8.51,0.08 15.03,2.6 19.63,7.81 4.51,5.12 6.86,12.42 6.86,21.71l0 189.84c0,9.11 -2.35,16.33 -6.86,21.62 -4.6,5.21 -11.12,7.9 -19.63,7.9l-26.22 0z"/>
  <polygon class="fil3" points="24450.81,23640.08 24450.81,24010.02 24478.77,24010.02 24513.86,24010.02 24615.11,24010.02 24615.11,23948.45 24513.86,23948.45 24513.86,23856.83 24602.44,23856.83 24602.44,23795.52 24513.86,23795.52 24513.86,23701.65 24615.11,23701.65 24615.11,23640.08 24513.86,23640.08 24478.77,23640.08 "/>
  <path class="fil3" d="M24734.71 23659.97c-16.06,15.71 -24.05,37.86 -24.05,66.34l0 19.11c0,15.11 2.17,27.96 6.51,38.64 4.35,10.68 9.99,19.72 17.03,27.09 7.03,7.39 14.84,13.72 23.44,19.02 8.51,5.22 16.94,9.99 25.27,14.25 8.68,4.25 16.68,8.42 24.14,12.59 7.47,4.16 13.47,8.77 17.98,13.98 4.51,5.12 6.77,11.55 6.77,19.19l0 32.31c0,9.2 -2.52,16.41 -7.55,21.62 -4.95,5.3 -12.07,7.9 -21.19,7.9 -9.38,0 -16.68,-2.69 -21.89,-7.99 -5.29,-5.39 -7.9,-12.68 -7.9,-22.06l0 -19.8 -62.87 0.53 0 19.8c0,19.36 3.74,35.77 11.12,49.41 7.38,13.55 17.97,23.88 31.78,31.09 13.81,7.2 30.48,10.85 49.93,10.85 29.01,0 51.59,-7.99 67.56,-24.05 16.07,-15.98 24.06,-38.47 24.06,-67.3l0 -30.75c0,-14.76 -2,-27.18 -5.99,-37.16 -3.99,-9.99 -9.21,-18.42 -15.72,-25.18 -6.6,-6.78 -13.81,-12.6 -21.62,-17.29 -7.9,-4.78 -15.81,-9.2 -23.8,-13.29 -9.2,-4.86 -17.89,-9.46 -26.14,-13.55 -8.16,-4.16 -14.84,-9.02 -20.05,-14.49 -5.21,-5.56 -7.73,-12.6 -7.73,-21.28l0 -24.67c0,-8.51 2.43,-15.1 7.46,-19.97 5.04,-4.86 12.07,-7.29 21.28,-7.29 8.6,0 15.37,2.69 20.23,8.07 4.78,5.3 7.21,12.77 7.21,22.24l0 21.09 62.87 -0.78 0 -20.84c0,-28.82 -7.98,-51.23 -23.97,-67.13 -15.88,-15.97 -38.03,-23.96 -66.34,-23.96 -29.18,0 -51.76,7.9 -67.83,23.71z"/>
  <polygon class="fil3" points="24997.7,23640.08 24997.7,24010.02 25060.83,24010.02 25060.83,23640.08 "/>
  <path class="fil3" d="M25179.74 23680.29c-7.29,14.24 -10.94,31.35 -10.94,51.4l0 191.84c0,19.02 3.65,35.26 11.02,48.71 7.39,13.47 18.07,23.8 32.06,30.92 13.98,7.12 30.65,10.68 50.02,10.68 19.36,0 35.86,-3.73 49.49,-11.02 13.64,-7.39 24.06,-18.07 31.26,-31.88 7.22,-13.8 10.86,-30.48 10.86,-49.93l0 -110.73 -92.92 0 0 60.54 31.09 0 0 50.62c0,8.86 -2.61,15.81 -7.9,20.76 -5.3,5.03 -12.6,7.55 -21.88,7.55 -9.13,0 -16.24,-2.34 -21.37,-7.03 -5.12,-4.69 -7.64,-11.03 -7.64,-19.19l0 -191.84c0,-9.63 2.43,-17.36 7.29,-23 4.78,-5.74 11.55,-8.51 20.15,-8.51 7.82,0 13.98,2.52 18.49,7.64 4.52,5.03 6.69,12.07 6.69,21.1l0 28.48 64.96 0 0 -28.48c0,-19.55 -3.56,-36.22 -10.77,-50.02 -7.12,-13.81 -17.36,-24.4 -30.74,-31.7 -13.37,-7.29 -29.61,-10.94 -48.63,-10.94 -18.93,0 -35.34,3.82 -49.06,11.38 -13.73,7.55 -24.23,18.4 -31.53,32.65z"/>
  <polygon class="fil3" points="25461.48,23640.08 25461.48,24009.76 25519.22,24009.76 25519.22,23794.8 25598.6,24009.76 25648.71,24009.76 25648.71,23640.08 25591.22,23640.08 25591.22,23867.67 25511.06,23640.08 "/>
 </g>
</svg>
